# xmcd CD database file
#
# Track frame offsets:
#	150
#	21039
#	34336
#	49757
#	64374
#	79808
#	95627
#	113464
#	135331
#	147980
#	161242
#	177190
#	187765
#	199990
#
# Disc length: 2822 seconds
#
# Revision: 2
# Processed by: cddbd v1.5.2PL0 Copyright (c) Steve Scherf et al.
# Submitted via: CDex 1.70beta2
#
DISCID=bf0b040e
DTITLE=Tony Bennett, 1926- and Bill Charlap, 1965- - The Silver Lining, The Songs Of Jerome Kern
DYEAR=2015
DGENRE=Jazz Vocals
TTITLE0=All the Things You Are - Oscar Hammerstein II, Jerome Kern
TTITLE1=Pick Yourself Up - Dorothy Fields, Jerome Kern
TTITLE2=The Last Time I Saw Paris - Oscar Hammerstein II, Jerome Kern
TTITLE3=I Won't Dance - Dorothy Fields, Otto Harbach, Oscar Hammerstein II, Jerome Kern, Jimmy McHugh
TTITLE4=Long Ago and Far Away - Ira Gershwin, Jerome Kern
TTITLE5=Dearly Beloved - Jerome Kern, Johnny Mercer
TTITLE6=The Song Is You - Oscar Hammerstein II, Jerome Kern
TTITLE7=They Didn't Believe Me - Jerome Kern, Herbert Reynolds
TTITLE8=I'm Old Fashioned - Jerome Kern, Johnny Mercer
TTITLE9=The Way You Look Tonight - Dorothy Fields, Jerome Kern
TTITLE10=Yesterdays - Otto Harbach, Jerome Kern
TTITLE11=Make Believe - Oscar Hammerstein II, Jerome Kern
TTITLE12=Nobody Else But Me - Oscar Hammerstein II, Jerome Kern
TTITLE13=Look for the Silver Lining - Buddy DeSylva, Jerome Kern
EXTD=c2015 RPM - Columbia - Sony Music\nProduced by Dae Bennett and Bill Charlap YEAR: 2015
EXTT0=
EXTT1=
EXTT2=
EXTT3=
EXTT4=
EXTT5=
EXTT6=
EXTT7=
EXTT8=
EXTT9=
EXTT10=
EXTT11=
EXTT12=
EXTT13=
PLAYORDER=
